<?xml version="1.0" standalone="no"?>
<!DOCTYPE svg PUBLIC "-//W3C//DTD SVG 20010904//EN"
 "http://www.w3.org/TR/2001/REC-SVG-20010904/DTD/svg10.dtd">
<svg version="1.0" xmlns="http://www.w3.org/2000/svg"
 width="1280.000000pt" height="1280.000000pt" viewBox="0 0 1280.000000 1280.000000"
 preserveAspectRatio="xMidYMid meet">
<metadata>
Created by potrace 1.15, written by Peter Selinger 2001-2017
</metadata>
<g transform="translate(0.000000,1280.000000) scale(0.100000,-0.100000)"
fill="#000000" stroke="none">
<path d="M6325 11924 c-49 -27 -73 -54 -91 -100 -31 -82 2 -171 81 -216 37
-21 57 -23 261 -29 484 -16 927 -91 1390 -234 160 -50 182 -52 239 -26 48 22
69 44 90 94 21 50 19 93 -6 145 -28 58 -71 83 -209 126 -518 159 -1000 239
-1510 252 -188 4 -219 3 -245 -12z"/>
<path d="M5750 11904 c-655 -79 -1270 -263 -1848 -553 -65 -33 -134 -72 -152
-87 -115 -97 -56 -287 96 -310 42 -6 57 0 242 89 234 113 300 142 475 208 395
150 888 266 1292 304 39 4 87 11 107 16 50 13 102 68 118 124 32 114 -62 228
-185 224 -16 -1 -82 -7 -145 -15z"/>
<path d="M8715 11366 c-55 -25 -105 -101 -105 -161 0 -34 26 -94 53 -123 12
-13 61 -44 109 -68 315 -159 660 -388 968 -644 147 -122 418 -386 533 -518 88
-101 134 -132 196 -132 74 0 126 33 162 102 25 49 24 106 -3 156 -13 23 -87
112 -166 197 -415 450 -948 857 -1489 1137 -142 73 -191 83 -258 54z"/>
<path d="M3168 10903 c-26 -15 -102 -70 -168 -122 -500 -388 -951 -884 -1280
-1406 -74 -119 -80 -131 -80 -182 0 -60 15 -95 57 -135 73 -69 184 -63 247 14
15 18 73 103 129 188 203 307 386 531 661 806 197 197 344 326 543 477 55 41
111 89 126 106 57 69 41 183 -36 244 -30 25 -49 31 -95 34 -48 3 -64 0 -104
-24z"/>
<path d="M7830 6537 c0 -2587 3 -3704 11 -3724 13 -34 55 -80 91 -99 39 -20
328 -20 367 0 41 22 89 81 96 118 3 18 7 960 8 2093 l3 2060 32 175 c32 173
99 600 122 775 15 118 17 127 19 85 1 -24 75 185 236 665 128 385 231 704 227
710 -3 5 3 4 14 -4 51 -35 -84 78 -438 367 -213 174 -421 340 -463 369 -81 56
-165 87 -264 99 l-61 7 0 -3696z m787 1831 c-3 -8 -6 -5 -6 6 -1 11 2 17 5 13
3 -3 4 -12 1 -19z m-10 -120 c-3 -8 -6 -5 -6 6 -1 11 2 17 5 13 3 -3 4 -12 1
-19z m-10 -75 c-3 -10 -5 -4 -5 12 0 17 2 24 5 18 2 -7 2 -21 0 -30z m-10
-100 c-3 -10 -5 -4 -5 12 0 17 2 24 5 18 2 -7 2 -21 0 -30z"/>
<path d="M4212 10084 c-54 -38 -51 29 -53 -1327 -1 -1233 -1 -1255 19 -1293
39 -76 94 -104 206 -104 l74 0 6 -142 c5 -136 19 -852 32 -1718 4 -217 1 -651
-5 -965 -6 -313 -16 -847 -22 -1186 -13 -698 -17 -651 69 -714 73 -53 134 -68
260 -63 93 3 114 8 165 33 32 16 74 47 94 69 l36 40 -7 490 c-4 270 -13 835
-20 1256 -12 729 -11 947 10 1790 6 224 11 315 15 260 3 -53 6 -67 7 -38 2 38
66 261 102 353 4 11 12 34 18 50 217 664 841 2546 849 2558 2 4 11 3 19 -4 8
-6 14 -9 14 -6 0 3 -136 122 -302 264 -166 142 -342 293 -391 336 -76 66 -93
77 -125 77 -21 0 -48 -7 -60 -16 -54 -37 -52 -5 -52 -919 l0 -845 -55 0 -55 0
0 835 c0 907 2 879 -55 923 -52 41 -119 24 -154 -38 -21 -38 -21 -40 -21 -879
l0 -841 -55 0 -55 0 0 841 c0 757 -2 844 -16 875 -22 45 -50 64 -95 64 -48 0
-95 -38 -109 -88 -6 -24 -10 -331 -10 -864 l0 -828 -50 0 -50 0 0 823 c0 562
-4 834 -11 861 -16 58 -58 96 -106 96 -21 0 -49 -7 -61 -16z m1195 -2561 c-2
-16 -4 -3 -4 27 0 30 2 43 4 28 2 -16 2 -40 0 -55z m-20 -70 c-8 -15 -28 -39
-43 -53 -27 -23 -26 -23 3 12 17 20 34 46 38 58 4 12 9 19 12 17 2 -3 -2 -18
-10 -34z"/>
<path d="M10825 9486 c-39 -17 -70 -52 -90 -98 -31 -75 -21 -101 115 -323 271
-444 495 -1007 609 -1535 57 -264 60 -273 89 -303 39 -42 79 -59 133 -59 87 0
161 62 174 147 11 69 -74 451 -169 757 -121 389 -318 827 -530 1180 -104 172
-138 216 -182 234 -42 17 -110 17 -149 0z"/>
<path d="M1395 8707 c-49 -28 -69 -63 -144 -252 -233 -588 -361 -1197 -387
-1832 -6 -151 -5 -178 11 -218 45 -120 203 -150 290 -54 45 50 52 83 59 289
20 584 165 1232 395 1772 29 69 41 111 41 145 -1 99 -75 173 -175 173 -33 0
-63 -8 -90 -23z"/>
<path d="M8572 7935 c0 -16 2 -22 5 -12 2 9 2 23 0 30 -3 6 -5 -1 -5 -18z"/>
<path d="M11685 6796 c-37 -17 -80 -62 -94 -99 -7 -17 -11 -128 -11 -286 0
-277 -9 -438 -40 -681 -45 -351 -124 -691 -240 -1029 -28 -79 -50 -159 -50
-178 0 -39 28 -99 62 -130 71 -66 201 -53 258 27 48 68 179 495 244 795 80
370 115 679 123 1096 6 326 2 374 -39 432 -41 57 -145 83 -213 53z"/>
<path d="M1033 5930 c-45 -10 -97 -52 -117 -93 -22 -48 -20 -103 10 -296 92
-596 277 -1164 555 -1700 130 -251 157 -281 257 -281 74 0 132 34 161 93 32
66 27 112 -19 198 -328 604 -519 1171 -610 1804 -12 81 -26 160 -31 174 -29
75 -123 121 -206 101z"/>
<path d="M11045 4028 c-32 -19 -53 -48 -120 -164 -171 -300 -330 -531 -540
-786 -135 -164 -468 -500 -631 -636 -66 -56 -126 -113 -132 -126 -49 -108 2
-225 112 -256 74 -20 117 -3 237 98 499 417 937 948 1264 1527 56 99 69 130
73 176 8 109 -53 181 -162 187 -49 2 -68 -2 -101 -20z"/>
<path d="M2088 3310 c-101 -30 -157 -152 -112 -245 8 -18 63 -91 120 -161 417
-510 912 -939 1462 -1265 120 -72 159 -85 219 -76 45 8 75 27 110 74 24 31 28
46 28 97 0 90 -25 123 -143 193 -544 318 -1017 732 -1460 1277 -84 103 -143
131 -224 106z"/>
<path d="M9150 1991 c-14 -5 -86 -43 -159 -85 -526 -304 -1077 -502 -1714
-616 -129 -23 -165 -34 -193 -55 -46 -35 -67 -79 -67 -143 0 -95 77 -172 173
-172 106 0 507 85 789 166 437 127 983 369 1303 577 131 86 118 262 -24 322
-40 16 -68 18 -108 6z"/>
<path d="M4340 1598 c-114 -33 -165 -161 -105 -264 30 -51 75 -75 291 -152
566 -204 1243 -322 1839 -322 195 0 240 19 280 113 32 77 4 168 -68 215 l-41
27 -260 6 c-274 7 -387 16 -625 50 -350 49 -730 145 -1059 268 -183 68 -205
73 -252 59z"/>
</g>
</svg>
